<svg width="103" height="25" viewBox="0 0 103 25" fill="none" xmlns="http://www.w3.org/2000/svg">
<path d="M76.3479 1.01465C76.1733 1.01465 76.0278 1.04399 75.8823 1.07333C76.4642 1.7188 77.0462 2.77503 77.5408 4.38871C77.9772 4.03663 78.2391 3.50852 78.2391 2.92172C78.21 1.8655 77.3662 1.01465 76.3479 1.01465Z" fill="#9A2A76"/>
<path d="M75.8824 1.07275C75.0969 1.27813 74.4858 2.01162 74.4858 2.89181C74.4858 3.9187 75.3296 4.79889 76.3771 4.79889C76.8135 4.79889 77.2209 4.65219 77.5409 4.38813C77.0172 2.80379 76.4353 1.74757 75.8824 1.07275Z" fill="#D676AC"/>
<path d="M86.3278 4.6521C85.1639 4.59342 84.2037 5.50295 84.1456 6.67653C84.1165 7.32201 84.4074 7.93814 84.8439 8.34889C86.2405 6.91125 87.4043 6.26578 88.219 6.0604C87.9571 5.26823 87.2006 4.68144 86.3278 4.6521Z" fill="#D32724"/>
<path d="M88.2194 6.06006C87.3756 6.26544 86.2408 6.91091 84.8442 8.34855C85.1934 8.67129 85.6589 8.84732 86.1536 8.87666C87.3174 8.93534 88.3067 8.02582 88.3358 6.85223C88.3649 6.58817 88.3067 6.32412 88.2194 6.06006Z" fill="#F39325"/>
<path d="M80.3341 4.32922C80.8287 4.828 80.7996 5.32677 80.5668 5.70819C80.5959 5.73753 80.625 5.73753 80.6832 5.73753C80.9742 5.85488 81.2361 6.00158 81.4979 6.14828C82.9527 5.20941 82.6327 3.65441 82.5454 3.33168C82.3708 2.71554 82.0507 2.18743 81.4106 2.09941C80.7123 2.01139 80.0431 2.51017 79.9558 3.24366C79.9267 3.68375 80.0722 4.06517 80.3341 4.32922Z" fill="#5567A9"/>
<path d="M83.7385 10.3148C83.4184 9.58132 82.9529 8.87717 82.3419 8.2317C81.7309 7.61557 81.0325 7.14613 80.2761 6.8234C79.5777 6.53 78.8503 6.3833 78.1229 6.3833C78.0648 6.3833 78.0357 6.3833 77.9775 6.3833C77.1919 6.41264 76.4354 6.58868 75.6207 6.94075C75.5916 6.94075 75.5916 6.97009 75.5625 6.97009L83.5639 15.0092C83.5639 14.9798 83.593 14.9798 83.593 14.9505C83.9422 14.1583 84.1458 13.3955 84.1458 12.6033C84.204 11.8405 84.0585 11.0483 83.7385 10.3148Z" fill="#4F667C"/>
<path d="M83.5636 14.8037H72.2743C71.9834 15.8013 71.8379 16.5934 71.8379 17.5323C71.8379 18.5298 72.8272 24.1924 77.919 24.1924C83.0108 24.1924 84 18.5005 84 17.503C84 16.5347 83.8546 15.8013 83.5636 14.8037ZM74.9221 20.3196H81.1195C81.1195 20.3196 78.0063 25.3366 74.9221 20.3196Z" fill="#4F667C"/>
<path d="M5.17901 7.55687V9.0532H0.0581055V1.36621H1.77477V7.55687H5.17901Z" fill="#87A3B2"/>
<path d="M7.91428 3.06787C8.40891 3.06787 8.78716 3.12655 9.13632 3.24391C9.45637 3.36127 9.71823 3.50796 9.92191 3.71334C10.1256 3.91872 10.242 4.18278 10.3293 4.44683C10.3874 4.74023 10.4456 5.06297 10.4456 5.44438V8.87712C10.2129 8.9358 9.89281 8.99448 9.45637 9.05316C9.04903 9.11184 8.5253 9.17051 7.94338 9.17051C7.56513 9.17051 7.24507 9.14117 6.92502 9.0825C6.60496 9.02382 6.37219 8.90646 6.13942 8.75976C5.93575 8.61306 5.76118 8.40768 5.64479 8.14363C5.52841 7.90891 5.47021 7.58617 5.47021 7.26344C5.47021 6.9407 5.52841 6.61797 5.67389 6.38325C5.81937 6.14853 5.99394 5.9725 6.22671 5.8258C6.45948 5.6791 6.72134 5.59108 7.0123 5.50306C7.30326 5.44438 7.62332 5.41504 7.91428 5.41504C8.11795 5.41504 8.32163 5.44438 8.46711 5.44438C8.64168 5.47372 8.75807 5.47372 8.87445 5.50306V5.32702C8.87445 5.06297 8.78716 4.82825 8.61259 4.65221C8.43801 4.47617 8.14705 4.38815 7.7397 4.38815C7.47784 4.38815 7.18688 4.41749 6.89592 4.44683C6.60496 4.47617 6.40129 4.53485 6.19762 4.62287L5.99394 3.30259C6.08123 3.27325 6.19762 3.24391 6.3431 3.21457C6.48858 3.18523 6.66315 3.15589 6.80863 3.12655C6.98321 3.09721 7.15778 3.06787 7.33236 3.06787C7.53603 3.09721 7.7397 3.06787 7.91428 3.06787ZM8.05976 7.90891C8.23434 7.90891 8.37982 7.90891 8.5253 7.87957C8.67078 7.87957 8.78716 7.85023 8.87445 7.85023V6.58863C8.81626 6.55929 8.69987 6.55929 8.58349 6.55929C8.46711 6.52995 8.32163 6.52995 8.23434 6.52995C8.05976 6.52995 7.91428 6.55929 7.7979 6.55929C7.68151 6.58863 7.53603 6.61797 7.44874 6.67664C7.33236 6.73532 7.27417 6.794 7.21598 6.88202C7.15779 6.97004 7.12869 7.0874 7.12869 7.20476C7.12869 7.46882 7.21598 7.64485 7.39055 7.76221C7.53603 7.85023 7.7688 7.90891 8.05976 7.90891Z" fill="#87A3B2"/>
<path d="M15.101 5.97148C15.101 5.44336 15.0428 5.06195 14.8973 4.82723C14.7518 4.62185 14.5481 4.50449 14.199 4.50449C14.0826 4.50449 13.9953 4.50449 13.8789 4.53383C13.7625 4.56317 13.6752 4.56317 13.5589 4.56317V9.08148H11.9004V3.41893C12.0459 3.38959 12.2204 3.36025 12.395 3.30157C12.5696 3.24289 12.7733 3.24289 13.006 3.18421C13.2097 3.15487 13.4134 3.12553 13.6462 3.12553C13.8498 3.09619 14.0826 3.09619 14.2863 3.09619C14.6936 3.09619 15.0428 3.15487 15.3046 3.27223C15.5665 3.38959 15.7702 3.50695 15.9447 3.65364C16.1775 3.47761 16.4394 3.33091 16.7594 3.24289C17.0795 3.15487 17.3413 3.09619 17.6032 3.09619C18.0687 3.09619 18.447 3.15487 18.738 3.30157C19.0289 3.44827 19.2908 3.6243 19.4363 3.85902C19.6108 4.09374 19.7272 4.3578 19.7854 4.70987C19.8436 5.03261 19.8727 5.41402 19.8727 5.79544V9.11082H18.2142V5.97148C18.2142 5.44336 18.156 5.06195 18.0106 4.82723C17.8651 4.62185 17.6614 4.50449 17.3123 4.50449C17.225 4.50449 17.1086 4.53383 16.9631 4.56317C16.7885 4.59251 16.6721 4.65119 16.5558 4.73921C16.6139 4.91525 16.643 5.09129 16.643 5.29666C16.6721 5.4727 16.6721 5.67808 16.6721 5.9128V9.11082H15.0137V5.97148H15.101Z" fill="#223B53"/>
<path d="M20.7163 6.17743C20.7163 5.67865 20.7745 5.20922 20.9491 4.79846C21.1237 4.41705 21.2982 4.09431 21.5601 3.83026C21.822 3.5662 22.1129 3.36082 22.433 3.24346C22.753 3.1261 23.1022 3.03809 23.4513 3.03809C24.266 3.03809 24.9061 3.30214 25.4008 3.80092C25.8663 4.29969 26.1282 5.06252 26.1282 6.03073C26.1282 6.11875 26.1282 6.2361 26.0991 6.35346C26.0991 6.47082 26.07 6.55884 26.07 6.6762H22.4039C22.433 7.02827 22.6076 7.29233 22.8694 7.46837C23.1313 7.67375 23.5095 7.76177 24.0042 7.76177C24.3242 7.76177 24.6152 7.73243 24.877 7.67375C25.168 7.61507 25.4008 7.55639 25.5753 7.46837L25.779 8.81799C25.6917 8.84733 25.5753 8.90601 25.4299 8.93535C25.2844 8.96469 25.1098 9.02337 24.9352 9.05271C24.7607 9.08205 24.557 9.11139 24.3533 9.14073C24.1496 9.17007 23.946 9.17007 23.7423 9.17007C23.2186 9.17007 22.753 9.11139 22.3748 8.93535C21.9965 8.75931 21.6765 8.58328 21.4146 8.28988C21.1527 7.99648 20.9782 7.70309 20.8618 7.32167C20.7745 7.02828 20.7163 6.61752 20.7163 6.17743ZM24.557 5.56129C24.557 5.4146 24.5279 5.29724 24.4988 5.15054C24.4697 5.03318 24.3824 4.88648 24.3242 4.79846C24.2369 4.68111 24.1205 4.62243 24.0042 4.53441C23.8878 4.47573 23.7132 4.44639 23.5386 4.44639C23.364 4.44639 23.1895 4.47573 23.0731 4.53441C22.9567 4.59309 22.8403 4.68111 22.753 4.79846C22.6657 4.91582 22.5785 5.00384 22.5494 5.15054C22.4912 5.29724 22.4621 5.4146 22.433 5.56129H24.557Z" fill="#223B53"/>
<path d="M26.972 3.41995C27.2338 3.33193 27.6121 3.24391 28.0485 3.18523C28.485 3.12655 28.9505 3.06787 29.4451 3.06787C29.9398 3.06787 30.3471 3.12655 30.6672 3.27325C30.9872 3.39061 31.2491 3.59598 31.4528 3.8307C31.6564 4.06542 31.7728 4.32948 31.8601 4.68155C31.9474 5.00429 31.9765 5.3857 31.9765 5.76712V9.0825H30.318V5.9725C30.318 5.44438 30.2598 5.06297 30.1143 4.82825C29.9689 4.59353 29.707 4.50551 29.3287 4.50551C29.2124 4.50551 29.096 4.50551 28.9505 4.53485C28.8341 4.56419 28.6886 4.56419 28.6013 4.56419V9.0825H26.9429L26.972 3.41995Z" fill="#223B53"/>
<path d="M32.9658 1.77675L34.6243 1.5127V3.2144H36.6028V4.59336H34.6243V6.64713C34.6243 6.99921 34.6825 7.26326 34.7989 7.49798C34.9153 7.70336 35.148 7.82072 35.5263 7.82072C35.7008 7.82072 35.8754 7.79138 36.0791 7.76204C36.2828 7.7327 36.4282 7.70336 36.5737 7.61534L36.8065 8.90628C36.6028 8.96496 36.3992 9.05298 36.1373 9.11166C35.9045 9.17034 35.5845 9.19968 35.2644 9.19968C34.7989 9.19968 34.4497 9.141 34.1297 9.02364C33.8387 8.90628 33.6059 8.73025 33.4314 8.52487C33.2568 8.31949 33.1404 8.0261 33.0822 7.7327C33.024 7.40996 32.9658 7.08723 32.9658 6.70581V1.77675Z" fill="#223B53"/>
<path d="M36.9521 6.17743C36.9521 5.67865 37.0103 5.20922 37.1849 4.79846C37.3595 4.41705 37.5341 4.09431 37.7959 3.83026C38.0578 3.5662 38.3488 3.36082 38.6688 3.24346C39.018 3.1261 39.338 3.03809 39.6872 3.03809C40.5019 3.03809 41.142 3.30214 41.6366 3.80092C42.1021 4.29969 42.364 5.06252 42.364 6.03073C42.364 6.11875 42.364 6.2361 42.3349 6.35346C42.3349 6.47082 42.3058 6.55884 42.3058 6.6762H38.5815C38.6106 7.02827 38.7852 7.29233 39.0471 7.46837C39.3089 7.67375 39.6872 7.76177 40.1818 7.76177C40.5019 7.76177 40.7928 7.73243 41.0547 7.67375C41.3166 7.61507 41.5784 7.55639 41.753 7.46837L41.9567 8.81799C41.8694 8.84733 41.753 8.90601 41.6075 8.93535C41.462 8.96469 41.2875 9.02337 41.1129 9.05271C40.9383 9.08205 40.7346 9.11139 40.531 9.14073C40.3273 9.17007 40.1236 9.17007 39.9199 9.17007C39.3962 9.17007 38.9307 9.11139 38.5524 8.93535C38.1742 8.75931 37.8541 8.58328 37.5923 8.28988C37.3304 8.02582 37.1558 7.70309 37.0394 7.32167C37.0103 7.02828 36.9521 6.61752 36.9521 6.17743ZM40.7928 5.56129C40.7928 5.4146 40.7637 5.29724 40.7346 5.15054C40.7055 5.03318 40.6182 4.88648 40.5601 4.79846C40.4728 4.68111 40.3564 4.62243 40.24 4.53441C40.1236 4.47573 39.949 4.44639 39.7454 4.44639C39.5708 4.44639 39.3962 4.47573 39.2798 4.53441C39.1634 4.59309 39.0471 4.68111 38.9598 4.79846C38.8725 4.91582 38.7852 5.00384 38.7561 5.15054C38.6979 5.29724 38.6688 5.4146 38.6397 5.56129H40.7928Z" fill="#223B53"/>
<path d="M43.2949 6.17743C43.2949 5.67865 43.3531 5.20922 43.5277 4.79846C43.7023 4.41705 43.8768 4.09431 44.1387 3.83026C44.4006 3.5662 44.6915 3.36082 45.0116 3.24346C45.3316 3.1261 45.6808 3.03809 46.0299 3.03809C46.8446 3.03809 47.4847 3.30214 47.9794 3.80092C48.4449 4.29969 48.7068 5.06252 48.7068 6.03073C48.7068 6.11875 48.7068 6.2361 48.6777 6.35346C48.6777 6.47082 48.6486 6.55884 48.6486 6.6762H44.9243C44.9534 7.02827 45.128 7.29233 45.3898 7.46837C45.6517 7.67375 46.0299 7.76177 46.5246 7.76177C46.8446 7.76177 47.1356 7.73243 47.3975 7.67375C47.6884 7.61507 47.9212 7.55639 48.0958 7.46837L48.2994 8.81799C48.2122 8.84733 48.0958 8.90601 47.9503 8.93535C47.8048 8.96469 47.6302 9.02337 47.4557 9.05271C47.2811 9.08205 47.0774 9.11139 46.8737 9.14073C46.6701 9.17007 46.4664 9.17007 46.2627 9.17007C45.739 9.17007 45.2735 9.11139 44.8952 8.93535C44.517 8.75931 44.1969 8.58328 43.935 8.28988C43.6732 8.02582 43.4986 7.70309 43.3822 7.32167C43.3531 7.02828 43.2949 6.61752 43.2949 6.17743ZM47.1647 5.56129C47.1647 5.4146 47.1356 5.29724 47.1065 5.15054C47.0774 5.03318 46.9901 4.88648 46.9319 4.79846C46.8446 4.68111 46.7283 4.62243 46.6119 4.53441C46.4955 4.47573 46.3209 4.44639 46.1463 4.44639C45.9718 4.44639 45.7972 4.47573 45.6808 4.53441C45.5644 4.59309 45.448 4.68111 45.3607 4.79846C45.2734 4.91582 45.1862 5.00384 45.1571 5.15054C45.0989 5.29724 45.0698 5.4146 45.0407 5.56129H47.1647Z" fill="#87A3B2"/>
<path d="M51.2091 7.87855C51.5291 7.87855 51.7037 7.84921 51.8492 7.79053C51.9656 7.73185 52.0238 7.6145 52.0238 7.43846C52.0238 7.3211 51.9656 7.1744 51.791 7.08638C51.6164 6.96902 51.3837 6.881 51.0636 6.73431C50.8017 6.64629 50.569 6.52893 50.3653 6.44091C50.1616 6.32355 49.9871 6.20619 49.8125 6.08883C49.667 5.94214 49.5506 5.7661 49.4633 5.59006C49.4051 5.38468 49.3469 5.14997 49.3469 4.85657C49.3469 4.29912 49.5506 3.85902 49.958 3.56563C50.3653 3.24289 50.9181 3.09619 51.6164 3.09619C51.9656 3.09619 52.3147 3.12553 52.6348 3.18421C52.9548 3.24289 53.2167 3.30157 53.4204 3.38959L53.1294 4.68053C52.9258 4.62185 52.7221 4.56317 52.5184 4.50449C52.3147 4.44582 52.0529 4.44581 51.7619 4.44581C51.2673 4.44581 50.9763 4.59251 50.9763 4.88591C50.9763 4.94459 51.0054 5.00327 51.0054 5.06195C51.0345 5.12063 51.0636 5.1793 51.1218 5.20864C51.18 5.26732 51.2964 5.29666 51.3837 5.38468C51.5 5.44336 51.6455 5.50204 51.8201 5.56072C52.1693 5.67808 52.4602 5.82478 52.693 5.97148C52.9258 6.08884 53.1003 6.23553 53.2458 6.38223C53.3622 6.52893 53.4786 6.70497 53.5368 6.881C53.595 7.05704 53.6241 7.29176 53.6241 7.52648C53.6241 8.11327 53.4204 8.55336 52.9839 8.84676C52.5475 9.14016 51.9656 9.28685 51.1509 9.28685C50.6563 9.28685 50.2198 9.25751 49.8707 9.1695C49.5215 9.08148 49.2887 8.99346 49.1724 8.96412L49.4342 7.6145C49.6961 7.73185 49.9871 7.81987 50.278 7.87855C50.6272 7.84921 50.9181 7.87855 51.2091 7.87855Z" fill="#87A3B2"/>
<path d="M5.90649 17.1211C5.90649 16.1235 5.79011 15.4194 5.52825 15.0086C5.26638 14.5979 4.82994 14.3925 4.21892 14.3925C4.01525 14.3925 3.84068 14.4218 3.60791 14.4218C3.40424 14.4512 3.20056 14.4512 2.99689 14.4805V22.8716H0V12.3974C0.261864 12.3387 0.552824 12.2507 0.901976 12.192C1.25113 12.1333 1.62938 12.0453 2.00763 11.9866C2.41497 11.9279 2.79322 11.8693 3.20056 11.8399C3.60791 11.8106 4.01525 11.7812 4.4226 11.7812C5.20819 11.7812 5.81921 11.8693 6.31384 12.0746C6.80847 12.28 7.18672 12.5147 7.50678 12.7788C7.94322 12.4561 8.43785 12.2213 9.01977 12.0453C9.57259 11.8693 10.0963 11.7812 10.591 11.7812C11.4638 11.7812 12.1621 11.8986 12.715 12.1333C13.2678 12.368 13.7042 12.7201 14.0243 13.1602C14.3443 13.6003 14.5771 14.1284 14.6935 14.7152C14.8099 15.3313 14.8681 16.0062 14.8681 16.7396V22.8716H11.8421V17.1211C11.8421 16.1235 11.7257 15.4194 11.4638 15.0086C11.202 14.5979 10.7655 14.3925 10.1545 14.3925C9.97994 14.3925 9.74717 14.4218 9.45621 14.5098C9.16525 14.5979 8.90338 14.6859 8.72881 14.8326C8.8161 15.1553 8.90338 15.478 8.90338 15.8301C8.93248 16.1822 8.93248 16.5636 8.93248 16.9744V22.901H5.90649V17.1211Z" fill="#4F667C"/>
<path d="M20.7165 11.7524C21.6185 11.7524 22.375 11.8698 22.986 12.0752C23.597 12.2806 24.0626 12.574 24.4408 12.9554C24.79 13.3368 25.0518 13.8062 25.1973 14.3637C25.3428 14.9211 25.401 15.5373 25.401 16.2121V22.6081C24.9645 22.6961 24.3535 22.8135 23.5679 22.9602C22.7823 23.0775 21.8513 23.1656 20.7456 23.1656C20.0473 23.1656 19.4363 23.1069 18.8544 22.9895C18.3015 22.8722 17.8069 22.6668 17.3996 22.3734C16.9922 22.1093 16.6722 21.7279 16.4685 21.2585C16.2648 20.789 16.1484 20.2316 16.1484 19.5861C16.1484 18.9407 16.2648 18.4125 16.5267 17.9724C16.7886 17.5323 17.1377 17.1803 17.545 16.9162C17.9524 16.6522 18.447 16.4468 18.9998 16.3588C19.5527 16.2414 20.1346 16.1827 20.6874 16.1827C21.0948 16.1827 21.4148 16.2121 21.7349 16.2414C22.0549 16.2707 22.2877 16.3001 22.4623 16.3588V16.0654C22.4623 15.5373 22.2877 15.1265 21.9967 14.8038C21.6767 14.481 21.1239 14.3343 20.3383 14.3343C19.8145 14.3343 19.3199 14.3637 18.7962 14.4517C18.3015 14.5104 17.8651 14.6277 17.4869 14.7744L17.1377 12.2806C17.3123 12.2219 17.545 12.1632 17.8069 12.1045C18.0688 12.0458 18.3597 11.9872 18.6798 11.9285C18.9998 11.8698 19.3199 11.8405 19.6691 11.8111C19.9891 11.7524 20.3383 11.7524 20.7165 11.7524ZM20.9493 20.7597C21.2693 20.7597 21.5312 20.7597 21.8222 20.7304C22.084 20.701 22.3168 20.701 22.4623 20.6717V18.3245C22.3459 18.2952 22.1422 18.2658 21.9095 18.2365C21.6476 18.2072 21.4439 18.2072 21.2402 18.2072C20.9493 18.2072 20.6874 18.2365 20.4256 18.2658C20.1637 18.2952 19.96 18.3832 19.7563 18.4712C19.5527 18.5592 19.4072 18.6766 19.2908 18.882C19.1744 19.058 19.1162 19.234 19.1162 19.4981C19.1162 19.9675 19.2908 20.3196 19.6109 20.4957C19.96 20.6717 20.3965 20.7597 20.9493 20.7597Z" fill="#4F667C"/>
<path d="M33.8388 14.7446C33.5769 14.6859 33.2277 14.5979 32.8786 14.5392C32.5294 14.4805 32.1221 14.4218 31.6856 14.4218C31.482 14.4218 31.2783 14.4512 30.9873 14.4805C30.7255 14.5098 30.5218 14.5392 30.3763 14.5979V22.901H27.3503V12.6028C27.9032 12.3974 28.5433 12.2213 29.2998 12.0453C30.0272 11.8693 30.871 11.7812 31.802 11.7812C31.9766 11.7812 32.1512 11.8106 32.413 11.8106C32.6458 11.8399 32.8786 11.8693 33.1114 11.8986C33.3441 11.9279 33.5769 11.9573 33.8097 12.016C34.0424 12.0746 34.2461 12.1333 34.4207 12.192L33.8388 14.7446Z" fill="#4F667C"/>
<path d="M38.8432 11.7524C39.7452 11.7524 40.5017 11.8698 41.1127 12.0752C41.7237 12.2806 42.1893 12.574 42.5675 12.9554C42.9167 13.3368 43.1785 13.8062 43.324 14.3637C43.4695 14.9211 43.5277 15.5373 43.5277 16.2121V22.6081C43.0912 22.6961 42.4802 22.8135 41.6946 22.9602C40.909 23.0775 39.978 23.1656 38.8723 23.1656C38.174 23.1656 37.563 23.1069 36.9811 22.9895C36.4283 22.8722 35.9336 22.6668 35.5263 22.3734C35.1189 22.1093 34.7989 21.7279 34.5952 21.2585C34.3915 20.789 34.2751 20.2316 34.2751 19.5861C34.2751 18.9407 34.3915 18.4125 34.6534 17.9724C34.9153 17.5323 35.2644 17.1803 35.6718 16.9162C36.0791 16.6522 36.5737 16.4468 37.1266 16.3588C37.6794 16.2414 38.2613 16.1827 38.8141 16.1827C39.2215 16.1827 39.5415 16.2121 39.8616 16.2414C40.1816 16.2707 40.4144 16.3001 40.589 16.3588V16.0654C40.589 15.5373 40.4144 15.1265 40.1234 14.8038C39.8034 14.481 39.2506 14.3343 38.465 14.3343C37.9412 14.3343 37.4466 14.3637 36.9229 14.4517C36.3992 14.5397 35.9918 14.6277 35.6136 14.7744L35.2644 12.2806C35.439 12.2219 35.6718 12.1632 35.9336 12.1045C36.1955 12.0458 36.4864 11.9872 36.8065 11.9285C37.1266 11.8698 37.4466 11.8405 37.7958 11.8111C38.1158 11.7524 38.4941 11.7524 38.8432 11.7524ZM39.076 20.7597C39.396 20.7597 39.6579 20.7597 39.9489 20.7304C40.2107 20.701 40.4435 20.701 40.589 20.6717V18.3245C40.4726 18.2952 40.2689 18.2658 40.0362 18.2365C39.7743 18.2072 39.5706 18.2072 39.367 18.2072C39.076 18.2072 38.8141 18.2365 38.5523 18.2658C38.2904 18.2952 38.0867 18.3832 37.8831 18.4712C37.6794 18.5592 37.5339 18.6766 37.4175 18.882C37.3011 19.058 37.2429 19.234 37.2429 19.4981C37.2429 19.9675 37.4175 20.3196 37.7376 20.4957C38.0867 20.6717 38.5232 20.7597 39.076 20.7597Z" fill="#4F667C"/>
<path d="M48.1539 22.9016C47.4556 21.5226 46.7573 19.909 46.0299 18.0606C45.3025 16.2122 44.6333 14.2171 43.9932 12.0166H47.2228C47.3683 12.5447 47.5138 13.1315 47.7175 13.777C47.892 14.3931 48.0957 15.0386 48.2994 15.6841C48.503 16.3295 48.7067 16.9457 48.9104 17.5618C49.1141 18.1779 49.3177 18.706 49.4923 19.2342C49.6669 18.7354 49.8415 18.2073 50.0742 17.5618C50.2779 16.9457 50.4816 16.3295 50.6853 15.6841C50.8889 15.0386 51.0926 14.3931 51.2672 13.777C51.4417 13.1608 51.6163 12.5741 51.7618 12.0166H54.9333C54.2932 14.1877 53.624 16.2122 52.8966 18.0606C52.1692 19.909 51.4708 21.5226 50.7725 22.9016H48.1539Z" fill="#4F667C"/>
<path d="M59.0069 8.90646C59.0069 9.46391 58.8323 9.90401 58.4541 10.2267C58.1049 10.5495 57.6685 10.7255 57.1739 10.7255C56.6792 10.7255 56.2428 10.5495 55.8936 10.2267C55.5445 9.90401 55.3408 9.46391 55.3408 8.90646C55.3408 8.34901 55.5154 7.90891 55.8936 7.58618C56.2719 7.26344 56.6792 7.0874 57.1739 7.0874C57.6685 7.0874 58.1049 7.26344 58.4541 7.58618C58.8032 7.87957 59.0069 8.34901 59.0069 8.90646ZM58.716 22.9015H55.6609V12.0458H58.716V22.9015Z" fill="#4F667C"/>
<path d="M65.0589 23.1071C64.186 23.0778 63.4586 22.9898 62.9058 22.8137C62.3529 22.6377 61.9165 22.3737 61.5964 22.0803C61.2764 21.7575 61.0436 21.3761 60.9563 20.9067C60.8399 20.4372 60.7817 19.9091 60.7817 19.3517V7.3811L63.8368 6.88232V18.7062C63.8368 18.9703 63.8659 19.2343 63.895 19.4397C63.9241 19.6451 64.0114 19.8504 64.1278 19.9971C64.2442 20.1438 64.4187 20.2612 64.6224 20.3492C64.8261 20.4372 65.1171 20.5253 65.4953 20.5253L65.0589 23.1071Z" fill="#4F667C"/>
<path d="M70.7034 23.1071C69.8305 23.0778 69.1031 22.9898 68.5503 22.8137C67.9975 22.6377 67.561 22.3737 67.241 22.0803C66.9209 21.7575 66.6881 21.3761 66.6008 20.9067C66.4845 20.4372 66.4263 19.9091 66.4263 19.3517V7.3811L69.4814 6.88232V18.7062C69.4814 18.9703 69.5105 19.2343 69.5395 19.4397C69.5686 19.6451 69.6559 19.8504 69.7723 19.9971C69.8887 20.1438 70.0633 20.2612 70.2669 20.3492C70.4706 20.4372 70.7616 20.5253 71.1398 20.5253L70.7034 23.1071Z" fill="#4F667C"/>
<path d="M88.6264 20.6713C89.1792 20.6713 89.5865 20.6126 89.8193 20.4953C90.0521 20.3779 90.1684 20.1725 90.1684 19.8498C90.1684 19.5857 90.023 19.3803 89.7029 19.2043C89.3828 19.0283 88.9464 18.7936 88.3354 18.5588C87.8699 18.3828 87.4334 18.2068 87.0261 18.0014C86.6187 17.796 86.2987 17.5906 86.0368 17.2972C85.7749 17.0332 85.5422 16.7104 85.3967 16.329C85.2512 15.9769 85.193 15.5075 85.193 14.9794C85.193 13.9525 85.5713 13.1603 86.3278 12.5735C87.0552 11.9868 88.1317 11.6934 89.4119 11.6934C90.0521 11.6934 90.6922 11.752 91.3032 11.8694C91.9142 11.9868 92.3797 12.1041 92.7289 12.2508L92.2052 14.6273C91.856 14.51 91.4778 14.3926 91.0413 14.3046C90.634 14.2166 90.1684 14.1579 89.6447 14.1579C88.6845 14.1579 88.219 14.4219 88.219 14.9501C88.219 15.0674 88.2481 15.1848 88.2772 15.2728C88.3063 15.3608 88.3936 15.4488 88.5391 15.5369C88.6845 15.6249 88.83 15.7129 89.0337 15.8302C89.2374 15.9476 89.5283 16.0356 89.8484 16.1823C90.5176 16.4464 91.0704 16.6811 91.5069 16.9158C91.9433 17.1505 92.2924 17.4146 92.5252 17.708C92.7871 17.972 92.9617 18.3241 93.0489 18.6469C93.1653 18.9989 93.1944 19.3803 93.1944 19.8498C93.1944 20.9353 92.7871 21.7275 92.0015 22.285C91.2159 22.8424 90.0521 23.1065 88.6264 23.1065C87.6662 23.1065 86.8806 23.0185 86.2405 22.8424C85.6004 22.6664 85.1639 22.5197 84.9312 22.4317L85.4258 19.9378C85.9495 20.1432 86.4732 20.2899 87.0261 20.4366C87.5789 20.6126 88.1026 20.6713 88.6264 20.6713Z" fill="#4F667C"/>
<path d="M98.3156 11.7524C99.2176 11.7524 99.9741 11.8698 100.585 12.0752C101.196 12.2806 101.662 12.574 102.04 12.9554C102.389 13.3368 102.651 13.8062 102.796 14.3637C102.942 14.9211 103 15.5373 103 16.2121V22.6081C102.564 22.6961 101.953 22.8135 101.167 22.9602C100.381 23.0775 99.4504 23.1656 98.3447 23.1656C97.6464 23.1656 97.0354 23.1069 96.4535 22.9895C95.9007 22.8722 95.406 22.6668 94.9987 22.3734C94.5913 22.1093 94.2713 21.7279 94.0676 21.2585C93.8639 20.789 93.7476 20.2316 93.7476 19.5861C93.7476 18.9407 93.8639 18.4125 94.1258 17.9724C94.3877 17.5323 94.7368 17.1803 95.1442 16.9162C95.5515 16.6522 96.0461 16.4468 96.599 16.3588C97.1518 16.2414 97.7337 16.1827 98.2865 16.1827C98.6939 16.1827 99.0139 16.2121 99.334 16.2414C99.654 16.2707 99.8868 16.3001 100.061 16.3588V16.0654C100.061 15.5373 99.8868 15.1265 99.5959 14.8038C99.2758 14.481 98.723 14.3343 97.9374 14.3343C97.4137 14.3343 96.919 14.3637 96.3953 14.4517C95.9007 14.5104 95.4642 14.6277 95.086 14.7744L94.7368 12.2806C94.9114 12.2219 95.1442 12.1632 95.406 12.1045C95.6679 12.0458 95.9589 11.9872 96.2789 11.9285C96.599 11.8698 96.919 11.8405 97.2682 11.8111C97.6173 11.7524 97.9665 11.7524 98.3156 11.7524ZM98.5484 20.7597C98.8685 20.7597 99.1303 20.7597 99.4213 20.7304C99.6831 20.701 99.9159 20.701 100.061 20.6717V18.3245C99.945 18.2952 99.7413 18.2658 99.5086 18.2365C99.2467 18.2072 99.043 18.2072 98.8394 18.2072C98.5484 18.2072 98.2865 18.2365 98.0247 18.2658C97.7628 18.2952 97.5591 18.3832 97.3555 18.4712C97.1518 18.5592 97.0063 18.6766 96.8899 18.882C96.7735 19.058 96.7153 19.234 96.7153 19.4981C96.7153 19.9675 96.8899 20.3196 97.21 20.4957C97.5591 20.6717 97.9956 20.7597 98.5484 20.7597Z" fill="#4F667C"/>
<path d="M84.4366 3.03852C84.3784 2.45173 84.262 2.33437 84.0292 2.15833C83.7092 1.95296 83.2728 2.04097 83.04 2.36371C82.8363 2.68645 82.9236 3.12654 83.2437 3.36126C83.9129 3.77201 83.1855 4.71088 83.1855 4.71088C84.0874 4.30013 84.5239 3.62531 84.4366 3.03852Z" fill="#A863A5"/>
<path d="M88.8011 6.00195C88.6265 6.00195 88.452 6.03129 88.2192 6.06063C88.3065 6.32469 88.3356 6.55941 88.3356 6.8528C88.2774 8.02639 87.3172 8.93592 86.1534 8.87724C85.6587 8.8479 85.1932 8.67186 84.844 8.34912C84.815 8.37846 84.7859 8.4078 84.7859 8.4078C84.6113 8.58384 84.4658 8.73054 84.3203 8.90658C84.4949 9.22931 84.6695 9.52271 84.8149 9.84544C84.8731 10.0508 84.9604 10.2562 85.0186 10.4616C85.8042 9.93346 86.7062 9.46403 87.7246 9.19997C90.3141 8.49582 90.4596 6.06063 88.8011 6.00195Z" fill="#EE7326"/>
<path d="M74.573 6.20701L75.0386 5.94295C75.0677 5.91361 75.0968 5.91361 75.155 5.88427C75.9987 5.50286 76.9007 5.26814 77.7736 5.2388C77.7736 5.20946 77.7736 5.20946 77.7445 5.20946C77.6863 4.91606 77.5699 4.62267 77.5117 4.35861C77.1917 4.62267 76.7843 4.76936 76.3479 4.76936C75.3295 4.76936 74.4567 3.91852 74.4567 2.86229C74.4567 1.9821 75.0677 1.24861 75.8533 1.04323C75.3004 0.4271 74.7767 0.192383 74.2821 0.192383C72.4199 0.192383 71.2561 3.6838 73.7874 5.50286C74.0493 5.73757 74.3403 5.97229 74.573 6.20701Z" fill="#D45E9F"/>
<path d="M74.544 9.2876C73.4674 9.2876 72.5654 10.1678 72.5654 11.2827C72.5654 11.7815 72.74 12.2216 73.0601 12.603C73.7002 11.7521 74.7185 11.224 75.8242 11.224C76.057 11.224 76.2897 11.2534 76.4934 11.2827C76.4934 10.1678 75.6205 9.2876 74.544 9.2876Z" fill="#ADCE6D"/>
<path d="M81.2651 14.276L77.4826 10.4912C76.6098 11.2247 76.0278 12.3396 76.0278 13.6012C76.0278 13.8359 76.0569 14.0706 76.086 14.276H81.2651Z" fill="#F39325"/>
<path d="M79.2867 14.2754C79.1412 12.7204 77.7737 11.7815 77.7737 11.7815C77.3954 11.5175 76.959 11.3414 76.4934 11.2534V11.2828C76.4934 12.3683 75.6206 13.2779 74.5149 13.2779C73.9039 13.2779 73.3802 13.0138 73.031 12.603C72.6819 13.1018 72.42 13.6886 72.3618 14.3047L79.2867 14.2754Z" fill="#38B6AB"/>
<path d="M75.8242 11.1943C74.6894 11.1943 73.7002 11.7518 73.0601 12.5733C73.4092 12.9841 73.9329 13.2481 74.544 13.2481C75.6205 13.2481 76.5225 12.3679 76.5225 11.253V11.2237C76.2897 11.2237 76.0569 11.1943 75.8242 11.1943Z" fill="#CFE09B"/>
<path d="M76.7262 11.3122C76.9299 10.9895 77.1918 10.7254 77.4536 10.5201L76.4062 9.49316C76.2025 9.55184 75.9697 9.6692 75.7952 9.8159C76.2025 10.168 76.4935 10.6961 76.4935 11.2829C76.5808 11.2829 76.6681 11.2829 76.7262 11.3122Z" fill="#D32724"/>
</svg>
